<?xml version="1.0" encoding="UTF-8"?>
<svg id="Layer_2" data-name="Layer 2" xmlns="http://www.w3.org/2000/svg" width="347.5" height="347.5" viewBox="0 0 347.5 347.5">
  <defs>
    <style>
      .cls-1 {
        fill: #123049;
      }

      .cls-1, .cls-2 {
        stroke-width: 0px;
      }

      .cls-2 {
        fill: #edf7fc;
      }
    </style>
  </defs>
  <g id="Layer_1-2" data-name="Layer 1">
    <g>
      <circle class="cls-2" cx="173.75" cy="173.75" r="173.75"/>
      <path class="cls-1" d="M142.19,96.74c-1.1.65-2.19,1.3-3.16,2.14-2.29,1.98-2.09,5.66-2,8.59.12,1.09.11,2.47.1,4.27-.02,1.64-.15,3.39.35,4.89,2.39,6.81-8.99,8.37-4.28,16.2,1.13,2.26,1.39,4.43.51,6.9-3.22,4.3,3.45,13.16-3.85,13.61-13.23.51-25.79-4.83-38.62-7.35-7.02-2.44-16.77,1.48-8.89,8.96,12.37,12.43-.29,12.19,9.62,22.13,4.13,4.07,3.62,5.74-1.85,7.76-5.82,2.16-11.49,2.68-17.91,1.71-17.07-3.04-34.6-.43-51.89-.88-11.13-.31-3.37,5.44-9.96,9.11-3.18,2.36-2.85,4.48-.44,7.5.28,1.58-2.01,3.7.54,4.71,2.27.9,4.65-.29,6.99-.66,11.43-1.54,18.61-15.13,31.13-9.88,11.78,3.77,23.81,9.94,36.44,7.3,6.51-.92,12.95-2.36,19.03-5.02,2.14-.94,3.87-.93,5.69.82,2.86,2.76,6.14,2.34,8.95.03,4.18-3.43,8.79-4.91,14.14-4.4,4.45.42,8.25-2.3,13.22-3.14-.03,13.59,12.5,7.07,15.65,17.21,2.51,5.69,5.61,10.62,12.6,11.38,1.75.19,1.99,1.99,2.71,3.28,3.4,6.08,7.68,10.88,15.59,9.4,2.28-.43,2.83,1.08,3.58,2.54,5.2,11.56,15.97,21.16,25.64,7.64,2.31.54,2.5,2.6,3.19,4.12,4.11,9.09,9.25,17.44,16.67,24.24,7.44,7.18,19.46,11.86,22.31-1.89,8.87,4.18,23.66,17.72,32.78,9.66,1.86-2.73.51-5.3-1.15-7.44-12.17-17.27-20.63-36.8-29.81-55.66-3.46-6.47,17.01-2.06,24.28-19.26,1.08-4.62,2.19-9.19,2.33-13.96-2.83-5.46-2.82-11.15-10.99-16.55-10.13-8.91,6.46-16.48,14.36-17.43,9.31-1.97,18.03-5.45,26.44-9.76,2.02-1.03,5.38-1.74,4.68-4.58-.67-2.68-3.88-1.41-5.96-1.45-11.05-.21-22.09,1.16-33.16-.71-14.26-4.29-22.6,4.82-35.86,6.44-3.51.55-7.52.51-10.38,4.1,4.04,6.09,15.16,7.32,14.18,15.81-1.41,7.71,4.42,13.33,8.71,18.9,4.8,4.36.17,8.79-4.81,5.55-9.14-5.13-7.5-18.75-16.64-23.73-8.15-4.84-4.84-16.45-2.45-23.83,11.34-25.9-18.82-35.45-17.34-71.57-1.52-8.59,7.7-31.45-.13-36.13-9.03-4.18-22.04,17.35-23.15,25.27-.34,1.71-.54,3.53-1.87,5.21-5.84-12.1-16.47-8.76-23.28.28-9.64,9.09-.79,30.12-15.66,25.43-14.77-2.67-7.42,13.12-16.93,12.16ZM94.5,194.2c-10.23,3.31-20.41,3.73-30.71-.74,1.33-1.11,2.43.02,3.5-.19,18.05,5.95,28.79-6.9,29.99-1.93.6,1.85-1.44,2.43-2.78,2.86Z"/>
    </g>
  </g>
</svg>