<?xml version="1.0" encoding="UTF-8"?>
<svg id="Layer_2" data-name="Layer 2" xmlns="http://www.w3.org/2000/svg" width="1016.89" height="427.97" viewBox="0 0 1016.89 427.97">
  <defs>
    <style>
      .cls-1 {
        fill: #fff;
        opacity: .9;
        stroke-width: 0px;
      }
    </style>
  </defs>
  <g id="Layer_1-2" data-name="Layer 1">
    <path class="cls-1" d="M11.63,427.97c-8.42-5.35-10.24-13.84-11.55-22.5-.65-4.27,2.56-4.37,5.52-4.39,44.8-.35,89.57-.57,134.37-1.37,22.82-.29,45.63-.79,68.45-.92,4.45-.03,5.69-1.34,5.47-5.75-5.32-85.6,27.32-166.02,84.06-229.03-22.91-16.39-49.37-41.61-40.89-72.72,13.01-30.6,48.44,3.32,65.79,13.04,7.35,4.89,14.59,9.96,21.66,15.25,2.89,2.16,5.01,2.17,7.99.21,61.27-40.36,136.56-57.43,209.28-47.54,6.77.93,13.17,3.1,19.88,4.09,13.52,3.45,3.43-16.33,20.78-13.19,16.55,5.22,6.7-18.19,17.43-28.31,7.58-10.06,19.42-13.79,25.91-.32,1.47-1.87,1.7-3.89,2.08-5.8,1.24-8.82,15.72-32.78,25.77-28.13,8.72,5.21-1.55,30.66.14,40.22-1.66,40.21,31.92,50.83,19.3,79.67-2.66,8.22-6.34,21.14,2.73,26.53,10.17,5.55,8.35,20.7,18.52,26.41,5.54,3.61,10.69-1.33,5.35-6.18-4.78-6.2-11.27-12.45-9.7-21.04,1.09-9.45-11.29-10.82-15.78-17.6,3.18-3.99,7.64-3.95,11.55-4.56,14.75-1.81,24.04-11.95,39.91-7.17,12.31,2.07,24.61.55,36.9.79,2.32.04,5.9-1.38,6.64,1.61.79,3.16-2.96,3.95-5.2,5.1-9.37,4.8-19.07,8.67-29.43,10.87-8.79,1.06-27.26,9.49-15.98,19.4,12.6,8.32,7.71,17.25,17.96,25.26,52.28,57.89,77.29,139.59,72.11,216.96-.54,5.43,2.66,5.04,6.13,5.03,58.66-.11,117.32-.17,175.98-.31,6.11,0,6.81.63,5.68,6.62-1.21,6.36-1.75,12.87-4.1,19.39-5.1.39-10.12.39-15.8.1-6.58-4.63-16.19-9.21-20.28.28-2.7,0-5.4,0-8.73-.28-7.95-5.34-21.27-19.77-30.62-11.68-3.33,4.21,2.21,7.72,2.35,11.96-45.02,0-90.04,0-135.72-.28-15.04-9.6-29.9-18.06-46.19-24.44,1.71-1.9,3.11-1.42,4.37-1.42,17.16,0,34.33-.09,51.49.1,4.28.05,5.75-1.4,5.98-5.72,4.76-73.28-18.82-146.96-64.02-204.64-1.51-1.98-3.16-3.89-6.57-3.85-7.75,20.18-31.3,14.99-27.39,22.3,10.22,20.99,19.63,42.73,33.18,61.95,1.85,2.37,3.35,5.24,1.28,8.28-10.15,8.97-26.61-6.11-36.49-10.75-3.18,15.3-16.55,10.1-24.83,2.11-8.27-7.57-13.98-16.87-18.56-26.99-.77-1.69-.98-3.99-3.55-4.59-10.77,15.04-22.75,4.36-28.54-8.51-.84-1.63-1.44-3.3-3.99-2.83-8.81,1.64-13.58-3.7-17.36-10.46-.8-1.44-1.06-3.44-3.01-3.65-7.79-.85-11.24-6.34-14.03-12.67-3.51-11.29-17.46-4.03-17.42-19.16-5.53.94-9.76,3.97-14.72,3.49-5.96-.57-11.09,1.08-15.74,4.9-3.13,2.57-6.78,3.04-9.97-.03-2.03-1.95-3.95-1.96-6.33-.92-6.76,2.96-13.93,4.56-21.18,5.59-14.06,2.94-27.45-3.93-40.56-8.13-13.93-5.84-21.93,9.28-34.65,11-2.6.42-5.26,1.74-7.78.74-2.84-1.13-.29-3.48-.6-5.24-2.69-3.36-3.05-5.72.49-8.35,7.34-4.09-1.29-10.48,11.09-10.14,19.24.5,38.75-2.4,57.75.98,7.14,1.08,13.46.5,19.93-1.9,6.09-2.26,6.65-4.11,2.06-8.64-11.03-11.06,3.07-10.8-10.7-24.64-8.77-8.33,2.08-12.68,9.89-9.97,14.28,2.8,28.26,8.75,42.99,8.18,8.13-.5.7-10.36,4.29-15.15.97-2.75.69-5.16-.57-7.68-5.24-8.71,7.43-10.45,4.77-18.03-.56-1.68-.41-3.62-.39-5.45.09-8.07-.14-8.69-8.04-10.08-73.32-12.44-152.05,2.97-213.07,46.01,18.11,14.37,28.83,34.13,44.94,49.91,18.14,15.83,38.65,28.36,58.41,41.94,11.62,3.63,16.92-4.02,22.57,13.27,1.78,5.62-.77,10-6.57,10.98-8.01,1.85-17.46.34-23.4,7.22,17.23-5.89,58.64,22.63,51.29-2.51-9.39-27.14-2.22-41.87,27.62-43.15,26.64-4.93,50.3,23.89,35.72,48.05-2.22,4.61-5.74,8.63-5.16,14.27.08.81-.63,2.01-1.34,2.53-8.06,5.35-11.59,19.68-23.97,13.69,2.13,2.99,4.06,3.33,5.76,3.59,26.89,6.65,45.01,43.25,74.4,53.07,11.41,5.49,22.27,14.94,36.21,9.64,14.54-6.05,14.52,8.84,23.58,16.68,13.62,9.3,27.18,18.69,40.75,28.06,26.14,7.2,54.64,13.34,75.6,31.42-23.02,0-46.04,0-69.63-.35-4.74-9.3-6.86-19.62-15.51-25.85-12.76-9.05-25.81-17.69-38.68-26.59-2.86-1.98-5.72-2.81-8.83-1.05-8.75,5.2-17.54-1.09-26.52-2.09-7.85-1.5-15.66-3.03-23-6.4-22.37-10.29-44.83-20.38-67.1-30.88-4.87-2.29-8.07-1.74-11.75,2.08-13.57,14.08-24.92,29.91-36.47,45.59-.52.71-1.36,1.59-.3,2.98,29.43.73,63.14-28.65,90.56-15.52,6.25,3.48,12.4,7.16,18.42,11.03,8.81,8.5,69.73-3.26,70.14,7.07,2.7,6.34,19.47,8.71,26.06,12.14,10.58,4.52,10.1,19.31,16.6,27.83-3.03,0-6.06,0-9.75-.26-9.27-9.29-19.11-16.55-30.77-21.17-8.44-4.58-24.96.74-16.86,12,2.29,3.27,4.91,6.3,7.38,9.43-4.02,0-8.05,0-12.67-.31-2.87-4.3-14.77-7.95-12.33.31-4.69,0-9.38,0-14.73-.27-7.64-8.75-37.93-22.98-29.27.27-91.02,0-182.04,0-273.24-.19,13.92-5.19-3.28-28.98,18.1-30.71,4.71-1.31,16.41,3.24,15.84-4.54-1.18-7.87,14.94-3.61,19.83-4.46,4.14.25,6-1.25,7.6-5.22,12.05-33.74,28.99-64.48,49.25-94.02-13.61-7.04-29.71-2.08-41.32-13.48-4.93-4.72-5.48-6.12-1.91-11.78,12.88-17.83,35.1-24.04,55.34-29.14,2.08-.56,4.44-1.37,4.93-3.74.51-2.48-2.02-3.21-3.56-4.28-16.73-11.53-33.57-22.9-50.21-34.55-10.78-7.8-23.23,2.64-35.29-1.12-18.22-2.66-35.03-9.28-50.89-18.36-4.15-2.38-6.64-1.84-9.79,1.55-55.54,60.01-84.36,138.43-79.5,220.21.19,3.44,1.25,4.72,4.71,4.59,16.61-.5,33.32-1.22,49.88.45,11.24.62,9.16,11.19,5.97,18.84-2.73,6.98,6.84,8.11,11.28,9.96-72.35,0-144.71,0-217.8-.21-10.52-4.94-18.73-12.03-30.35-12.62-3.68.03-5.91,1.79-7.23,5.04-5.29,17.26-18.05-13.37-25.62,7.8h-2.62M500.24,184.12c-1.19.23-2.42-1.03-3.9.21,11.47,4.98,22.79,4.51,34.19.83,1.5-.49,3.77-1.13,3.1-3.19-1.34-5.53-13.3,8.77-33.38,2.15Z"/>
  </g>
</svg>